<svg xmlns="http://www.w3.org/2000/svg" width="169.683" height="168.894" viewBox="0 0 169.683 168.894">
  <g id="Estetoscopio" transform="translate(1.5 1.5)">
    <g id="Camada_1" data-name="Camada 1">
      <path id="Caminho_11" data-name="Caminho 11" d="M0,21.493A25.067,25.067,0,0,1,8.5,10.975a71.982,71.982,0,0,0,9.385-7.659c4.252-4.444,10.926-4.2,15.437-.23a11.77,11.77,0,0,1,2.311,15.37,11.919,11.919,0,0,1-14.978,4.393c-1.444-.637-2.667-2.348-4.622-.681s-2.963,3.541-2.444,6.141c3.356,17.911,8.1,35.356,17.459,51.215a38.56,38.56,0,0,0,9.77,11.5c7.319,5.533,15.022,5.185,21.926-.844,6.282-5.489,10.37-12.519,13.741-20a171.713,171.713,0,0,0,12.593-42.46c.43-2.526-.541-3.889-2.222-5.378s-3.111-.422-4.652.319A11.852,11.852,0,0,1,69.838,2.515,11.6,11.6,0,0,1,85.83,4.293a22.511,22.511,0,0,0,5.585,4.748,29.911,29.911,0,0,1,8.889,8.245,12.409,12.409,0,0,1,2.548,9.067c-3.082,20.511-8.519,40.3-18.815,58.519-4.37,7.7-9.793,14.526-17.482,19.259a4.252,4.252,0,0,0-2.111,2.415,40.9,40.9,0,0,1-5.259,11.77,4.326,4.326,0,0,0-.341,3.244c3.267,17.963,13.2,30.119,34.23,30.941,9.126.356,17.993-.474,26.074-5.333,6.445-3.874,10.37-9.63,13.074-16.5,1.007-2.556.741-4.037-2.156-5.422-9.5-4.548-14.7-12.43-14.956-22.9-.237-9.519,3.926-17.222,12.03-22.452,13.726-8.889,31.808-2.859,38.111,12.593.511,1.252.956,2.533,1.43,3.8V107.39c-2.674,8.185-7.111,15-15.5,18.171-3.193,1.207-4.393,3.185-5.282,6.259-4.6,15.948-14.689,26.756-30.682,31.726-3.059.911-6.2,1.578-9.3,2.393H86.667a2.815,2.815,0,0,0-.667-.3c-23.7-4.178-36.3-19.059-40.541-42.06a19.059,19.059,0,0,0-1.4-4.548c-4.178-9.059-10.193-16.422-17.482-23.385-9.689-9.3-14.178-22.074-18.6-34.563C4.444,51.064,2.3,40.686,0,30.382Zm153.29,80.364a11.815,11.815,0,0,0-12.326-12.274c-7.178.044-12.593,5.422-12.459,12.341a12.348,12.348,0,0,0,12.37,12.111C148.1,114.087,153.283,109.013,153.29,101.857Z" transform="translate(0 -0.045)" fill="none" stroke="#84020d" stroke-width="3"/>
      <path id="Caminho_12" data-name="Caminho 12" d="M194.632,135.052a6.422,6.422,0,0,1-6.481,6.593,6.585,6.585,0,0,1-6.77-6.341,6.763,6.763,0,0,1,6.333-6.837,6.585,6.585,0,0,1,6.919,6.585Z" transform="translate(-47.023 -33.337)" fill="none" stroke="#84020d" stroke-width="3"/>
    </g>
  </g>
</svg>
