<svg xmlns="http://www.w3.org/2000/svg" width="155.077" height="172.667" viewBox="0 0 155.077 172.667">
  <g id="Medico" transform="translate(1.49 1.506)">
    <g id="Camada_1" data-name="Camada 1">
      <path id="Caminho_8" data-name="Caminho 8" d="M31.816,179.391c-1.412,5.236-3.647,9.377-8.1,12.581-5.027,3.647-8.856,8.429-9.674,15.082-.354,2.8-1.683,5.46-2.146,8.3a45.188,45.188,0,0,0-.156,12.461c.474,4.027,3.959,6.7,8.778,7.054a16.149,16.149,0,0,0,4.4-.188,2.66,2.66,0,0,0,2.329-3,2.594,2.594,0,0,0-2.751-2.292,35.452,35.452,0,0,0-4.933,0c-2.084.229-3.2-.62-3.449-2.6-.7-5.684-.839-11.6,1.969-16.551,2.506-4.418,4.84-9.216,9.007-12.566a7.061,7.061,0,0,1,9.091-.339,16.994,16.994,0,0,1,3.444,3.527c5.809,7.163,8.825,15.222,7.887,24.542-.344,3.485-.807,4.006-4.287,3.959-1.386,0-2.782-.026-4.168.057a2.33,2.33,0,0,0-2.464,2.2,2.7,2.7,0,0,0,1.922,3.022c5.637,2.183,12.93-2.313,13.383-8.335.365-4.866.375-9.8-1.24-14.441-1.485-4.272-1.11-9.065-4.116-12.941-2.417-3.126-4.85-6.069-8.257-8.169-4.272-2.6-4.746-4.663-2.084-8.929,1.829-2.985,3.7-6,7.9-5.861.948,0,1.719-.026,1.99,1.115,1.532,6.5,6.465,9.773,12.118,11.878,12.92,4.814,25.84,4.689,38.447-1.245,4.532-2.126,8.184-5.267,9.4-10.471.177-.745.438-1.391,1.318-1.3,2.99.3,6.189.141,7.992,3.324.641,1.13,1.407,2.2,1.954,3.371,1.776,3.819,1.7,3.97-1.922,6.022A10.846,10.846,0,0,0,120.921,209a10.668,10.668,0,0,0,10.419-8.533c1.115-4.439-1.167-9.9-5.533-11.821-3.678-1.631-3.042-5.157-4.084-7.877-.474-1.256,1.094-.521,1.615-.271a42.345,42.345,0,0,1,11.722,7.663c13.076,12.091,18.906,26.97,16.488,44.724-1.386,10.18-8.382,16.577-19.739,19.057-7.616,1.662-15.353,1.792-23.052,1.86q-32.82.281-65.641,0c-7.267-.062-14.587-.229-21.766-1.662C5.893,249.028-.911,240.3.1,223.287c1.084-18.312,10.044-32.143,25.866-41.468a17.6,17.6,0,0,1,5.85-2.428Zm74.872,57.128c3.511,0,3.553-.036,3.647-2.6.109-4,.109-3.985,4.168-4.136.906-.036,1.948.234,2.443-.964,1.3-3.126-.234-5.689-3.569-5.579-2.454.078-3.272-.906-3.079-3.225.083-1,.464-2.334-.375-2.98-1.469-1.136-3.339-.594-5.017-.427-1.433.146-1.193,1.511-1.177,2.506.068,4.215-.328,4.241-4.261,4.1-.766-.031-1.8-.172-2.11.636a7.543,7.543,0,0,0-.073,5.095c.448,1.349,1.964.9,3,.813,2.6-.234,3.746.839,3.428,3.433S104.313,237.046,106.688,236.52Z" transform="translate(-0.002 -84.279)" fill="none" stroke="#003563" stroke-width="3"/>
      <path id="Caminho_9" data-name="Caminho 9" d="M149.3,40.144c-.7,14.748-3.522,28.653-12.19,40.765-5.3,7.408-11.951,13.107-21.2,14.879-11.461,2.188-20.635-2.193-28.158-10.45C77.919,74.549,73.975,61.321,72.428,47.115A47.517,47.517,0,0,1,74.46,26.334C79.2,12.351,92.693,1.213,106.342.14c16.613-1.3,30.737,6.455,38.191,20.932A44.547,44.547,0,0,1,149.3,40.144ZM110.593,89.823A22.531,22.531,0,0,0,123.841,85.8c12.456-8.637,17.192-21.51,19.348-35.738.208-1.365-.547-1.469-1.563-1.042-.557.229-1.073.557-1.62.823-.453.224-.9.7-1.427.38-.667-.406-.313-1.078-.26-1.657.229-2.5.641-5.006.656-7.507,0-4.329.094-8.721-1.922-12.737-1.459-2.907-2.3-3.162-5.3-1.943-14.1,5.731-28.179,5.9-42.265-.063-2.969-1.256-4.095-.766-5.46,2.209a18.879,18.879,0,0,0-1.422,4.98c-.75,4.855-.193,9.69.146,14.53.052.735.656,1.62-.151,2.162-.646.427-1.276-.292-1.9-.521-.4-.156-.781-.38-1.172-.568-1.37-.646-1.677-.1-1.485,1.235,1.453,10,4.418,19.463,10.8,27.517C94.381,84.916,101.216,89.745,110.593,89.823Z" transform="translate(-34.534 0.001)" fill="none" stroke="#003563" stroke-width="3"/>
      <path id="Caminho_10" data-name="Caminho 10" d="M226.258,207.25a5.891,5.891,0,1,1-6.038,5.882,5.975,5.975,0,0,1,6.038-5.882Z" transform="translate(-105.496 -99.28)" fill="none" stroke="#003563" stroke-width="3"/>
    </g>
  </g>
</svg>
