<svg xmlns="http://www.w3.org/2000/svg" width="162.929" height="154.391" viewBox="0 0 162.929 154.391">
  <g id="Pata" transform="translate(2.5 2.503)">
    <g id="Camada_1" data-name="Camada 1">
      <path id="Caminho_3" data-name="Caminho 3" d="M297.257,2.473c.764.116,1.537.2,2.294.352,4.318.871,7.505,3.416,10.058,6.871a27.8,27.8,0,0,1,5.117,13.515,38.066,38.066,0,0,1-3.7,21.878c-2.458,4.947-5.755,9.247-10.617,12.113-4.8,2.829-9.831,3.586-15.086,1.411a18.345,18.345,0,0,1-8.543-7.776,28.609,28.609,0,0,1-4.058-13.483,39.4,39.4,0,0,1,2.115-16.139A32.917,32.917,0,0,1,285.1,6.48a16.953,16.953,0,0,1,9.932-3.922,3.1,3.1,0,0,0,.468-.1Z" transform="translate(-187.73 -2.46)" fill="none" stroke="#0a5820" stroke-miterlimit="10" stroke-width="5"/>
      <path id="Caminho_4" data-name="Caminho 4" d="M122.087,282.923a88.3,88.3,0,0,0-17.412,2.2c-5.029,1.047-10.058,2.247-15.152,2.914-4.017.525-8.037.911-12.082.091a17.943,17.943,0,0,1-14.222-15.806,23.54,23.54,0,0,1,2.417-12.308,45.091,45.091,0,0,1,11.789-15.4c3.589-3.143,7.229-6.229,10.51-9.718a116.346,116.346,0,0,0,8.47-10.935c2.932-4,5.642-8.172,8.926-11.906,3.907-4.447,8.467-8,14.382-9.209,7.361-1.509,14.084-.185,19.59,5.318a31.409,31.409,0,0,1,4.293,5.915c2.917,4.714,5.535,9.627,8.656,14.228a108.944,108.944,0,0,0,15.913,18.72,39.44,39.44,0,0,1,9.6,12.679,24.672,24.672,0,0,1,2.4,11A20.353,20.353,0,0,1,174.8,284.4a14.617,14.617,0,0,1-9.995,4.4c-4.89.343-9.668-.512-14.458-1.361q-10.8-1.92-21.639-3.636A31.793,31.793,0,0,0,122.087,282.923Z" transform="translate(-44.071 -139.468)" fill="none" stroke="#0a5820" stroke-miterlimit="10" stroke-width="5"/>
      <path id="Caminho_5" data-name="Caminho 5" d="M119.118,9.45A17.377,17.377,0,0,1,130.3,13.7c6.4,5.142,9.941,11.943,11.516,19.9A34.363,34.363,0,0,1,140.2,53.5,20.138,20.138,0,0,1,132,63.66c-5.541,3.338-11.2,3.165-16.733.022a28.055,28.055,0,0,1-12.192-14.4,41.3,41.3,0,0,1-2.91-12.886,30.863,30.863,0,0,1,4.35-18.4A16.874,16.874,0,0,1,117.4,9.532C118.03,9.453,118.65,9.469,119.118,9.45Z" transform="translate(-69.424 -7.253)" fill="none" stroke="#0a5820" stroke-miterlimit="10" stroke-width="5"/>
      <path id="Caminho_6" data-name="Caminho 6" d="M423.321,175.035c-.437,10.828-4.62,19.741-13.543,26.187a14.542,14.542,0,0,1-8.844,3c-5.868-.119-10.174-2.829-12.685-8.191a26.464,26.464,0,0,1-1.726-16.894,33.036,33.036,0,0,1,9.134-17.4,19.484,19.484,0,0,1,10.52-5.855,12.763,12.763,0,0,1,12.848,4.846,20.238,20.238,0,0,1,4.086,10.834A26.441,26.441,0,0,1,423.321,175.035Z" transform="translate(-265.393 -107.508)" fill="none" stroke="#0a5820" stroke-miterlimit="10" stroke-width="5"/>
      <path id="Caminho_7" data-name="Caminho 7" d="M2.52,176.708a26.328,26.328,0,0,1,2.653-12.151c3.555-7.153,11.217-8.857,17.211-6.669a23.624,23.624,0,0,1,8.967,6.368,31.894,31.894,0,0,1,8.005,16.388A25.773,25.773,0,0,1,38.01,196.1c-1.924,4.438-5.06,7.637-9.935,8.725-3.919.874-7.543-.141-10.966-2.059A26.623,26.623,0,0,1,6.3,190.861a35.9,35.9,0,0,1-3.52-10.809,20.4,20.4,0,0,1-.264-3.344Z" transform="translate(-2.52 -108.426)" fill="none" stroke="#0a5820" stroke-miterlimit="10" stroke-width="5"/>
    </g>
  </g>
</svg>
